<svg aria-hidden="true" style="position: absolute; width: 0; height: 0; overflow: hidden;" version="1.1" xmlns="http://www.w3.org/2000/svg" xmlns:xlink="http://www.w3.org/1999/xlink">
<defs>
<symbol id="icon-linkedin" viewBox="0 0 20 20">
<path d="M5 3c0 1.062-0.71 1.976-2.001 1.976-1.215 0-1.999-0.862-1.999-1.924 0-1.090 0.76-2.052 2-2.052s1.976 0.91 2 2zM1 19v-13h4v13h-4z"></path>
<path d="M7 10.444c0-1.545-0.051-2.836-0.102-3.951h3.594l0.178 1.723h0.076c0.506-0.811 1.746-2 3.822-2 2.532 0 4.432 1.695 4.432 5.342v7.442h-4v-6.861c0-1.594-0.607-2.81-2-2.81-1.062 0-1.594 0.86-1.873 1.569-0.102 0.254-0.127 0.608-0.127 0.963v7.139h-4v-8.556z"></path>
</symbol>
<symbol id="icon-github" viewBox="0 0 32 32">
<path d="M16 0.396c-8.84 0-16 7.164-16 16 0 7.071 4.584 13.067 10.94 15.18 0.8 0.151 1.093-0.344 1.093-0.769 0-0.38-0.013-1.387-0.020-2.72-4.451 0.965-5.389-2.147-5.389-2.147-0.728-1.847-1.78-2.34-1.78-2.34-1.449-0.992 0.112-0.972 0.112-0.972 1.607 0.112 2.451 1.648 2.451 1.648 1.427 2.447 3.745 1.74 4.66 1.331 0.144-1.035 0.556-1.74 1.013-2.14-3.553-0.4-7.288-1.776-7.288-7.907 0-1.747 0.62-3.173 1.647-4.293-0.18-0.404-0.72-2.031 0.14-4.235 0 0 1.34-0.429 4.4 1.64 1.28-0.356 2.64-0.532 4-0.54 1.36 0.008 2.72 0.184 4 0.54 3.040-2.069 4.38-1.64 4.38-1.64 0.86 2.204 0.32 3.831 0.16 4.235 1.020 1.12 1.64 2.547 1.64 4.293 0 6.147-3.74 7.5-7.3 7.893 0.56 0.48 1.080 1.461 1.080 2.96 0 2.141-0.020 3.861-0.020 4.381 0 0.42 0.28 0.92 1.1 0.76 6.401-2.099 10.981-8.099 10.981-15.159 0-8.836-7.164-16-16-16z"></path>
</symbol>
<symbol id="icon-medium" viewBox="0 0 32 32">
<path d="M0 0v32h32v-32zM26.584 7.581l-1.716 1.645c-0.121 0.092-0.198 0.237-0.198 0.399 0 0.030 0.003 0.059 0.007 0.087l-0-0.003v12.089c-0.004 0.025-0.007 0.053-0.007 0.083 0 0.162 0.077 0.306 0.196 0.398l0.001 0.001 1.676 1.645v0.361h-8.429v-0.36l1.736-1.687c0.171-0.171 0.171-0.22 0.171-0.48v-9.773l-4.827 12.26h-0.653l-5.621-12.26v8.217c-0.007 0.046-0.010 0.099-0.010 0.152 0 0.307 0.122 0.586 0.321 0.791l-0-0 2.259 2.739v0.361h-6.403v-0.36l2.26-2.74c0.189-0.196 0.306-0.464 0.306-0.759 0-0.065-0.006-0.129-0.017-0.19l0.001 0.007v-9.501c0.003-0.025 0.004-0.055 0.004-0.085 0-0.245-0.106-0.465-0.274-0.617l-0.001-0.001-2.008-2.419v-0.36h6.232l4.817 10.564 4.235-10.565h5.941z"></path>
</symbol>
</defs>
</svg>
